<?xml version="1.0" encoding="UTF-8" standalone="no"?>
<!DOCTYPE svg PUBLIC "-//W3C//DTD SVG 1.1//EN" "http://www.w3.org/Graphics/SVG/1.1/DTD/svg11.dtd">
<svg width="100%" height="100%" viewBox="0 0 1685 1684" version="1.1" xmlns="http://www.w3.org/2000/svg" xmlns:xlink="http://www.w3.org/1999/xlink" xml:space="preserve" xmlns:serif="http://www.serif.com/" style="fill-rule:evenodd;clip-rule:evenodd;stroke-linejoin:round;stroke-miterlimit:2;">
    <g transform="matrix(1,0,0,1,-3812.61,-3161.39)">
        <g>
            <g transform="matrix(0.766044,-0.642788,0.642788,0.766044,-1491.12,3928.24)">
                <path d="M4650.82,3161.39C4571.49,3260.69 4507.09,3417.2 4507.09,3586.96C4507.09,3756.72 4571.49,3913.23 4650.82,4012.53C4915.25,4012.53 5129.94,3821.84 5129.94,3586.96C5129.94,3352.08 4915.25,3161.39 4650.82,3161.39Z" style="fill:rgb(255,80,85);"/>
            </g>
            <g transform="matrix(0.173648,-0.984808,0.984808,0.173648,-108.356,7895.93)">
                <path d="M4650.82,3161.39C4571.49,3260.69 4507.09,3417.2 4507.09,3586.96C4507.09,3756.72 4571.49,3913.23 4650.82,4012.53C4915.25,4012.53 5129.94,3821.84 5129.94,3586.96C5129.94,3352.08 4915.25,3161.39 4650.82,3161.39Z" style="fill:rgb(255,201,0);"/>
            </g>
            <g transform="matrix(-0.5,-0.866025,0.866025,-0.5,3501.28,10046.5)">
                <path d="M4650.82,3161.39C4571.49,3260.69 4507.09,3417.2 4507.09,3586.96C4507.09,3756.72 4571.49,3913.23 4650.82,4012.53C4915.25,4012.53 5129.94,3821.84 5129.94,3586.96C5129.94,3352.08 4915.25,3161.39 4650.82,3161.39Z" style="fill:rgb(20,102,233);"/>
            </g>
            <g transform="matrix(-0.939693,-0.34202,0.34202,-0.939693,7648.8,9373.75)">
                <path d="M4650.82,3161.39C4571.49,3260.69 4507.09,3417.2 4507.09,3586.96C4507.09,3756.72 4571.49,3913.23 4650.82,4012.53C4915.25,4012.53 5129.94,3821.84 5129.94,3586.96C5129.94,3352.08 4915.25,3161.39 4650.82,3161.39Z" style="fill:rgb(255,80,85);"/>
            </g>
            <g transform="matrix(-0.939693,0.34202,-0.34202,-0.939693,10393.5,6192.4)">
                <path d="M4650.82,3161.39C4571.49,3260.69 4507.09,3417.2 4507.09,3586.96C4507.09,3756.72 4571.49,3913.23 4650.82,4012.53C4915.25,4012.53 5129.94,3821.84 5129.94,3586.96C5129.94,3352.08 4915.25,3161.39 4650.82,3161.39Z" style="fill:rgb(255,201,0);"/>
            </g>
            <g transform="matrix(-0.5,0.866025,-0.866025,-0.5,10451.2,1991.07)">
                <path d="M4650.82,3161.39C4571.49,3260.69 4507.09,3417.2 4507.09,3586.96C4507.09,3756.72 4571.49,3913.23 4650.82,4012.53C4915.25,4012.53 5129.94,3821.84 5129.94,3586.96C5129.94,3352.08 4915.25,3161.39 4650.82,3161.39Z" style="fill:rgb(20,102,233);"/>
            </g>
            <g transform="matrix(0.173648,0.984808,-0.984808,0.173648,7794.78,-1264.4)">
                <path d="M4650.82,3161.39C4571.49,3260.69 4507.09,3417.2 4507.09,3586.96C4507.09,3756.72 4571.49,3913.23 4650.82,4012.53C4915.25,4012.53 5129.94,3821.84 5129.94,3586.96C5129.94,3352.08 4915.25,3161.39 4650.82,3161.39Z" style="fill:rgb(255,80,85);"/>
            </g>
            <path d="M4830.89,3575.06C4852.31,3727.81 4788.89,3896.68 4650.82,4012.53C4853.39,4182.5 5140.42,4174.42 5291.4,3994.49C5442.37,3814.57 5400.49,3530.49 5197.92,3360.52C5079.54,3384.34 4938.29,3456.39 4830.89,3575.06Z" style="fill:rgb(255,201,0);"/>
            <path d="M4584.45,3265.7C4645.55,3288.83 4700.62,3326.5 4744.3,3378.55C4895.27,3558.48 4853.39,3842.56 4650.82,4012.53C4915.25,4012.53 5129.94,3821.84 5129.94,3586.96C5129.94,3352.08 4915.25,3161.39 4650.82,3161.39C4626.89,3191.35 4604.31,3226.51 4584.45,3265.7Z" style="fill:rgb(20,102,233);"/>
        </g>
    </g>
</svg>
