<?xml version="1.0" encoding="UTF-8" standalone="no"?>
<!DOCTYPE svg PUBLIC "-//W3C//DTD SVG 1.1//EN" "http://www.w3.org/Graphics/SVG/1.1/DTD/svg11.dtd">
<svg width="100%" height="100%" viewBox="0 0 768 768" version="1.1" xmlns="http://www.w3.org/2000/svg" xmlns:xlink="http://www.w3.org/1999/xlink" xml:space="preserve" xmlns:serif="http://www.serif.com/" style="fill-rule:evenodd;clip-rule:evenodd;stroke-linejoin:round;stroke-miterlimit:2;">
    <g transform="matrix(1,0,0,1,-4247.42,-3244.27)">
        <g transform="matrix(1,0,0,1,999.393,-3.75919)">
            <g transform="matrix(0.712683,0,0,0.712683,1267.02,902.828)">
                <path d="M3837.85,3829.28C3850.21,3868.54 3856.87,3910.28 3856.87,3953.57C3856.87,4182.24 3671.22,4367.89 3442.55,4367.89C3399.26,4367.89 3357.52,4361.23 3318.26,4348.87C3441.37,4310.17 3539.79,4215.46 3583.51,4094.64C3704.37,4050.88 3799.14,3952.43 3837.85,3829.28Z" style="fill:rgb(255,148,0);"/>
            </g>
            <g transform="matrix(1,0,0,1,-999.393,3.75919)">
                <path d="M4260.98,3628.13C4288.57,3715.91 4356.11,3786.07 4442.24,3817.25C4473.4,3903.36 4543.54,3970.86 4631.28,3998.44C4603.3,4007.25 4573.55,4011.99 4542.7,4011.99C4379.73,4011.99 4247.43,3879.68 4247.43,3716.71C4247.43,3685.86 4252.17,3656.11 4260.98,3628.13ZM4437.98,3627.47C4436.37,3622.32 4436.49,3622.76 4438.19,3628.13C4429.34,3656.09 4424.59,3685.85 4424.59,3716.71C4424.59,3752.01 4430.8,3785.88 4442.24,3817.25C4356.11,3786.06 4288.57,3715.9 4260.98,3628.13L4260.77,3627.47C4252.09,3599.68 4247.43,3570.16 4247.43,3539.55C4247.43,3376.58 4379.73,3244.27 4542.7,3244.27C4573.55,3244.27 4603.3,3249.01 4631.28,3257.82L4631.94,3257.62C4659.73,3248.94 4689.26,3244.27 4719.87,3244.27C4882.83,3244.27 5015.14,3376.58 5015.14,3539.55C5015.14,3570.4 5010.4,3600.15 5001.59,3628.13C4974.01,3540.38 4906.5,3470.23 4820.4,3439.03C4831.77,3470.41 4837.98,3504.26 4837.98,3539.55C4837.98,3570.17 4833.31,3599.71 4824.58,3627.47L4824.37,3628.13C4795.56,3719.92 4723.05,3792.43 4631.28,3821.27C4539.52,3792.43 4467.01,3719.92 4438.19,3628.13L4437.98,3627.47Z" style="fill:rgb(255,148,0);"/>
            </g>
            <g transform="matrix(0.712683,0,0,0.712683,1267.02,725.663)">
                <path d="M3589.19,4077.87C3601.62,4117.09 3608.28,4158.86 3608.28,4202.16C3608.28,4251.69 3599.56,4299.21 3583.51,4343.23C3539.5,4359.19 3492.03,4367.89 3442.55,4367.89C3399.26,4367.89 3357.52,4361.23 3318.26,4348.87C3447.01,4308.4 3548.76,4206.66 3589.19,4077.87Z"/>
            </g>
            <g transform="matrix(1,0,0,1,-999.393,3.75919)">
                <path d="M4631.94,3821.48C4659.73,3830.16 4689.26,3834.82 4719.87,3834.82C4755.13,3834.82 4788.96,3828.63 4820.33,3817.25C4829.98,3790.78 4746.01,3962.37 4631.28,3998.44C4511.55,3960.8 4424.59,3848.83 4424.59,3716.71C4424.59,3685.85 4429.34,3656.09 4438.19,3628.13C4467.01,3719.92 4539.52,3792.43 4631.28,3821.27L4631.94,3821.48Z" style="fill:white;"/>
            </g>
            <g transform="matrix(0.712683,0,0,0.712683,1267.02,725.663)">
                <path d="M3583.51,3812.5C3704.37,3856.26 3799.14,3954.71 3837.85,4077.87C3799.13,4201.03 3704.36,4299.48 3583.51,4343.23C3599.56,4299.21 3608.28,4251.69 3608.28,4202.16C3608.28,4158.86 3601.62,4117.09 3589.19,4077.87C3601.62,4038.64 3608.28,3996.88 3608.28,3953.57C3608.28,3904.04 3599.56,3856.52 3583.51,3812.5Z" style="fill:white;"/>
            </g>
            <g transform="matrix(0.712683,0,0,0.712683,1089.86,725.663)">
                <path d="M3295.91,4077.87C3336.34,4206.66 3438.08,4308.4 3566.84,4348.87C3527.58,4361.23 3485.84,4367.89 3442.55,4367.89C3393.07,4367.89 3345.6,4359.19 3301.59,4343.23C3285.53,4299.21 3276.82,4251.69 3276.82,4202.16C3276.82,4158.86 3283.48,4117.09 3295.91,4077.87Z" style="fill:white;"/>
            </g>
        </g>
    </g>
</svg>
